# This file uses centimeters as units for non-parametric coordinates.

mtllib Bottle.mtl
g default
v 2.714457 13.766290 -2.714457
v 0.000000 13.766290 -3.838822
v -2.714457 13.766290 -2.714457
v -3.838822 13.766290 0.000000
v -2.714457 13.766290 2.714457
v 0.000000 13.766290 3.838822
v 2.714457 13.766290 2.714457
v 3.838822 13.766290 0.000000
v 0.000000 0.387337 0.000000
v 1.413334 16.858868 -1.413334
v 0.000000 16.858868 -1.998755
v -1.413334 16.858868 -1.413335
v -1.998755 16.858868 -0.000000
v -1.413334 16.858868 1.413334
v 0.000000 16.858868 1.998755
v 1.413334 16.858868 1.413332
v 1.998755 16.858868 0.000000
v 0.916676 26.510361 -0.916664
v 0.000002 26.510361 -1.296365
v -0.916674 26.510361 -0.916678
v -1.296374 26.510361 0.000001
v -0.916676 26.510361 0.916672
v -0.000002 26.510361 1.296369
v 0.916674 26.510361 0.916677
v 1.296374 26.510361 0.000001
v 1.275752 20.581904 -1.275744
v 0.000001 20.581904 -1.804179
v -1.275750 20.581904 -1.275754
v -1.804184 20.581904 0.000000
v -1.275752 20.581904 1.275749
v -0.000001 20.581904 1.804181
v 1.275750 20.581904 1.275752
v 1.804184 20.581904 0.000000
v 2.447402 15.239922 -2.447402
v 0.000000 15.239922 -3.461151
v -2.447402 15.239922 -2.447404
v -3.461151 15.239922 -0.000000
v -2.447402 15.239922 2.447402
v 0.000000 15.239922 3.461151
v 2.447402 15.239922 2.447402
v 3.461151 15.239922 0.000000
v 0.966980 24.288947 -0.966969
v 1.367516 24.288947 0.000001
v 0.966978 24.288947 0.966982
v -0.000002 24.288947 1.367511
v -0.966980 24.288947 0.966977
v -1.367515 24.288947 0.000001
v -0.966978 24.288947 -0.966982
v 0.000002 24.288947 -1.367507
v 1.083140 24.567772 -1.083128
v 1.531790 24.567772 0.000001
v 1.083138 24.567772 1.083142
v -0.000002 24.567772 1.531785
v -1.083140 24.567772 1.083136
v -1.531790 24.567772 0.000001
v -1.083138 24.567772 -1.083143
v 0.000002 24.567772 -1.531781
v 0.967303 25.709206 -0.967291
v 1.367971 25.709206 0.000001
v 0.967300 25.709206 0.967304
v -0.000002 25.709206 1.367966
v -0.967303 25.709206 0.967299
v -1.367971 25.709206 0.000001
v -0.967300 25.709206 -0.967305
v 0.000002 25.709206 -1.367962
v 0.790387 26.473137 -0.790375
v 0.000000 26.473137 -1.117765
v -0.790385 26.473137 -0.790388
v -1.117774 26.473137 0.000001
v -0.790387 26.473137 0.790382
v -0.000001 26.473137 1.117769
v 0.790385 26.473137 0.790388
v 1.117774 26.473137 0.000001
v 0.790391 24.918776 -0.790378
v 0.000000 24.918776 -1.117772
v -0.000006 24.918776 -0.000002
v -0.790388 24.918776 -0.790395
v -1.117778 24.918776 -0.000002
v -0.790390 24.918776 0.790388
v -0.000001 24.918776 1.117774
v 0.790388 24.918776 0.790384
v 1.117778 24.918776 -0.000002
v 0.962252 26.047137 -0.962240
v 0.000002 26.047137 -1.360819
v -0.962249 26.047137 -0.962254
v -1.360828 26.047137 0.000001
v -0.962252 26.047137 0.962248
v -0.000002 26.047137 1.360823
v 0.962249 26.047137 0.962253
v 1.360828 26.047137 0.000001
v 1.025405 26.262564 -1.025392
v 1.450140 26.262564 0.000001
v 1.025402 26.262564 1.025406
v -0.000002 26.262564 1.450134
v -1.025405 26.262564 1.025400
v -1.450140 26.262564 0.000001
v -1.025402 26.262564 -1.025408
v 0.000002 26.262564 -1.450130
v 2.714457 2.391589 -2.714457
v 0.000000 2.391589 -3.838822
v -2.714457 2.391589 -2.714457
v -3.838822 2.391589 0.000000
v -2.714457 2.391589 2.714457
v 0.000000 2.391589 3.838822
v 2.714457 2.391589 2.714457
v 3.838822 2.391589 0.000000
v 2.802692 1.026555 -2.802692
v 0.000000 1.026555 -3.963605
v -2.802692 1.026555 -2.802692
v -3.963605 1.026555 0.000000
v -2.802692 1.026555 2.802692
v 0.000000 1.026555 3.963605
v 2.802692 1.026555 2.802692
v 3.963605 1.026555 0.000000
v 2.750630 0.420846 -2.750630
v 2.632122 0.120333 -2.632122
v 2.390331 0.000000 -2.390331
v 0.000000 0.420846 -3.889978
v 0.000000 0.120333 -3.722383
v 0.000000 0.000000 -3.380439
v -2.750630 0.420846 -2.750630
v -2.632122 0.120333 -2.632122
v -2.390331 0.000000 -2.390331
v -3.889978 0.420846 0.000000
v -3.722383 0.120333 0.000000
v -3.380439 0.000000 0.000000
v -2.750630 0.420846 2.750630
v -2.632122 0.120333 2.632122
v -2.390331 0.000000 2.390331
v 0.000000 0.420846 3.889978
v 0.000000 0.120333 3.722383
v 0.000000 0.000000 3.380439
v 2.750631 0.420846 2.750631
v 2.632122 0.120333 2.632122
v 2.390331 0.000000 2.390331
v 3.889978 0.420846 0.000000
v 3.722383 0.120333 0.000000
v 3.380439 0.000000 0.000000
v 2.624925 8.542276 -2.624925
v 3.712206 8.542276 0.000000
v 2.624926 8.542276 2.624926
v 0.000000 8.542276 3.712206
v -2.624925 8.542276 2.624925
v -3.712206 8.542276 0.000000
v -2.624925 8.542276 -2.624925
v 0.000000 8.542276 -3.712206
vt 0.000000 0.086299
vt 0.000000 0.319633
vt 0.125000 0.086299
vt 0.125000 0.319633
vt 0.250000 0.086299
vt 0.250000 0.319633
vt 0.375000 0.086299
vt 0.375000 0.319633
vt 0.500000 0.086299
vt 0.500000 0.319633
vt 0.625000 0.086299
vt 0.625000 0.319633
vt 0.750000 0.086299
vt 0.750000 0.319633
vt 0.633744 0.963172
vt 0.621472 0.966453
vt 0.623643 0.950011
vt 0.610473 0.960110
vt 0.607178 0.947847
vt 0.613516 0.936847
vt 0.625768 0.933546
vt 0.636774 0.939880
vt 0.640080 0.952149
vt 0.875000 0.573717
vt 0.000000 0.573717
vt 0.000000 0.633827
vt 0.125000 0.573717
vt 0.125000 0.633827
vt 0.250000 0.573717
vt 0.250000 0.633827
vt 0.375000 0.573717
vt 0.375000 0.633827
vt 0.500000 0.573717
vt 0.500000 0.633827
vt 0.625000 0.573717
vt 0.625000 0.633827
vt 0.750000 0.573717
vt 0.750000 0.633827
vt 0.875000 0.726163
vt 0.000000 0.726163
vt 0.000000 0.824259
vt 0.125000 0.726163
vt 0.125000 0.824259
vt 0.250000 0.726163
vt 0.250000 0.824259
vt 0.375000 0.726163
vt 0.375000 0.824259
vt 0.500000 0.726163
vt 0.500000 0.824259
vt 0.625000 0.726163
vt 0.625000 0.824259
vt 0.750000 0.726163
vt 0.750000 0.824259
vt 0.000000 0.517813
vt 0.125000 0.517813
vt 0.250000 0.517813
vt 0.375000 0.517813
vt 0.500000 0.517813
vt 0.625000 0.517813
vt 0.750000 0.517813
vt 0.750000 0.834837
vt 0.625000 0.834837
vt 0.500000 0.834837
vt 0.375000 0.834837
vt 0.250000 0.834837
vt 0.125000 0.834837
vt 0.000000 0.834837
vt 0.750000 0.878139
vt 0.625000 0.878139
vt 0.500000 0.878139
vt 0.375000 0.878139
vt 0.250000 0.878139
vt 0.125000 0.878139
vt 0.000000 0.878139
vt 0.750000 0.890959
vt 0.874999 0.890959
vt 0.750000 0.899131
vt 0.625000 0.890959
vt 0.625000 0.899131
vt 0.500000 0.890959
vt 0.500000 0.899131
vt 0.375000 0.890959
vt 0.375000 0.899131
vt 0.250000 0.890959
vt 0.250000 0.899131
vt 0.125000 0.890959
vt 0.125000 0.899131
vt 0.000000 0.890959
vt 0.000000 0.899131
vt 0.750000 0.907119
vt 0.652065 0.976973
vt 0.624675 0.989182
vt 0.625000 0.907119
vt 0.624443 0.984125
vt 0.500000 0.907119
vt 0.648327 0.973558
vt 0.375000 0.907119
vt 0.596677 0.978457
vt 0.250000 0.907119
vt 0.600086 0.974715
vt 0.125000 0.907119
vt 0.584454 0.951076
vt 0.000000 0.907119
vt 0.589512 0.950837
vt 0.000000 0.034514
vt 0.125000 0.034514
vt 0.250000 0.034514
vt 0.375000 0.034514
vt 0.500000 0.034514
vt 0.625000 0.034514
vt 0.750000 0.034514
vt 0.712828 0.914420
vt 0.737987 0.924841
vt 0.712828 0.950000
vt 0.687669 0.924841
vt 0.677247 0.950000
vt 0.687669 0.975159
vt 0.712828 0.985580
vt 0.737987 0.975159
vt 0.748408 0.950000
vt 0.875000 0.011536
vt 0.000000 0.011536
vt 0.125000 0.011536
vt 0.250000 0.011536
vt 0.375000 0.011536
vt 0.500000 0.011536
vt 0.625000 0.011536
vt 0.750000 0.011536
vt 0.740532 0.922296
vt 0.712828 0.910820
vt 0.685124 0.922296
vt 0.673648 0.950000
vt 0.685124 0.977704
vt 0.712828 0.989180
vt 0.740532 0.977704
vt 0.752007 0.950000
vt 0.000000 0.000000
vt 0.125000 0.000000
vt 0.250000 0.000000
vt 0.375000 0.000000
vt 0.500000 0.000000
vt 0.625000 0.000000
vt 0.750000 0.000000
vt 0.595171 0.923060
vt 0.598916 0.926467
vt 0.622575 0.910818
vt 0.622808 0.915876
vt 0.650599 0.921570
vt 0.647181 0.925305
vt 0.662803 0.948973
vt 0.657745 0.949199
vt 1.000000 0.086299
vt 1.000000 0.319633
vt 1.000000 0.573717
vt 0.875000 0.633827
vt 1.000000 0.726163
vt 1.000000 0.824259
vt 1.000000 0.633827
vt 1.000000 0.517813
vt 0.874999 0.824259
vt 1.000000 0.834837
vt 0.874999 0.834837
vt 1.000000 0.878139
vt 1.000000 0.890959
vt 1.000000 0.899131
vt 0.874999 0.878139
vt 0.874999 0.899131
vt 1.000000 0.907119
vt 0.874999 0.907119
vt 1.000000 0.034514
vt 0.875000 0.086299
vt 1.000000 0.011536
vt 0.875000 0.034514
vt 0.875000 0.000000
vt 1.000000 0.000000
vt 0.875000 0.319633
vt 0.875000 0.517813
vn 0.706696 0.034071 -0.706696
vn 0.000000 0.034071 -0.999419
vn 0.000000 -0.000010 -1.000000
vn 0.707107 -0.000010 -0.707107
vn -0.706696 0.034071 -0.706696
vn -0.707107 -0.000010 -0.707107
vn -0.999419 0.034071 -0.000000
vn -1.000000 -0.000010 -0.000000
vn -0.706696 0.034071 0.706696
vn -0.707107 -0.000010 0.707107
vn -0.000000 0.034071 0.999419
vn -0.000000 -0.000010 1.000000
vn 0.706696 0.034071 0.706696
vn 0.707107 -0.000010 0.707107
vn 0.999419 0.034071 -0.000000
vn 1.000000 -0.000010 -0.000000
vn 0.000000 1.000000 0.000000
vn 0.000000 1.000000 -0.000000
vn 0.000000 1.000000 -0.000001
vn 0.000000 1.000000 -0.000002
vn 0.000000 1.000000 -0.000002
vn 0.000000 1.000000 -0.000002
vn 0.000000 1.000000 -0.000001
vn 0.000000 1.000000 0.000001
vn 0.000000 1.000000 0.000000
vn 0.629811 0.454616 -0.629811
vn 0.000000 0.454616 -0.890688
vn 0.000001 0.381957 -0.924180
vn 0.653494 0.381957 -0.653494
vn -0.629811 0.454616 -0.629811
vn -0.653494 0.381957 -0.653494
vn -0.890688 0.454616 0.000000
vn -0.924180 0.381957 -0.000000
vn -0.629811 0.454616 0.629811
vn -0.653494 0.381957 0.653494
vn 0.000000 0.454616 0.890687
vn 0.000000 0.381957 0.924180
vn 0.629811 0.454616 0.629811
vn 0.653494 0.381957 0.653494
vn 0.890687 0.454616 0.000000
vn 0.924180 0.381957 0.000000
vn 0.704780 0.081052 -0.704781
vn 0.000003 0.081052 -0.996710
vn 0.000005 0.116986 -0.993134
vn 0.702250 0.116986 -0.702252
vn -0.704779 0.081052 -0.704781
vn -0.702250 0.116986 -0.702253
vn -0.996710 0.081051 -0.000001
vn -0.993134 0.116986 -0.000001
vn -0.704780 0.081051 0.704781
vn -0.702251 0.116986 0.702252
vn -0.000001 0.081051 0.996710
vn -0.000002 0.116986 0.993134
vn 0.704780 0.081051 0.704781
vn 0.702250 0.116986 0.702253
vn 0.996710 0.081051 0.000001
vn 0.993134 0.116986 0.000001
vn 0.706716 0.033225 -0.706716
vn 0.000000 0.033225 -0.999448
vn -0.706716 0.033225 -0.706716
vn -0.999448 0.033225 -0.000000
vn -0.706716 0.033225 0.706716
vn -0.000000 0.033225 0.999448
vn 0.706716 0.033225 0.706716
vn 0.999448 0.033225 -0.000000
vn 0.861583 -0.507616 -0.000001
vn 0.609230 -0.507615 -0.609234
vn 0.707065 0.010653 -0.707068
vn 0.999943 0.010653 0.000001
vn 0.609231 -0.507617 0.609231
vn 0.707065 0.010653 0.707068
vn -0.000003 -0.507614 0.861585
vn -0.000003 0.010653 0.999943
vn -0.609230 -0.507615 0.609234
vn -0.707066 0.010653 0.707068
vn -0.861583 -0.507617 0.000001
vn -0.999943 0.010653 -0.000001
vn -0.609229 -0.507619 -0.609232
vn -0.707064 0.010653 -0.707069
vn 0.000006 -0.507615 -0.861584
vn 0.000007 0.010653 -0.999943
vn 0.702261 0.116856 -0.702264
vn 0.993149 0.116856 0.000001
vn 0.702260 0.116856 0.702264
vn -0.000003 0.116856 0.993149
vn -0.702261 0.116856 0.702263
vn -0.993149 0.116856 -0.000001
vn -0.702260 0.116857 -0.702265
vn 0.000007 0.116856 -0.993149
vn 0.923760 -0.382972 0.000002
vn 0.653197 -0.382971 -0.653197
vn 0.701836 0.121874 -0.701836
vn 0.992546 0.121873 0.000001
vn 0.653195 -0.382971 0.653200
vn 0.701832 0.121873 0.701840
vn -0.000003 -0.382969 0.923761
vn -0.000003 0.121874 0.992546
vn -0.653195 -0.382971 0.653199
vn -0.701837 0.121874 0.701834
vn -0.923760 -0.382973 -0.000002
vn -0.992546 0.121873 -0.000003
vn -0.653191 -0.382972 -0.653203
vn -0.701831 0.121873 -0.701841
vn 0.000007 -0.382970 -0.923761
vn 0.000007 0.121873 -0.992546
vn 0.465008 0.753346 -0.465013
vn 0.000006 0.753347 -0.657623
vn -0.000002 0.978963 0.204040
vn -0.144275 0.978964 0.144272
vn -0.465009 0.753347 -0.465011
vn 0.144274 0.978962 0.144282
vn -0.657623 0.753347 -0.000002
vn 0.204036 0.978963 0.000001
vn -0.465010 0.753349 0.465007
vn 0.144275 0.978964 -0.144274
vn -0.000002 0.753347 0.657623
vn 0.000001 0.978963 -0.204040
vn 0.465008 0.753345 0.465015
vn -0.144275 0.978963 -0.144277
vn 0.657623 0.753347 0.000001
vn -0.204036 0.978963 0.000001
vn -0.707104 -0.000003 0.707109
vn -0.000009 -0.000004 1.000000
vn -0.000009 -0.000004 1.000000
vn -0.707104 -0.000003 0.707109
vn 0.707104 -0.000004 0.707109
vn 0.707104 -0.000004 0.707110
vn 1.000000 -0.000003 0.000001
vn 1.000000 -0.000003 0.000002
vn 0.707106 -0.000003 -0.707107
vn 0.707106 -0.000003 -0.707108
vn 0.000000 -0.000002 -1.000000
vn 0.000000 -0.000002 -1.000000
vn -0.707105 -0.000001 -0.707109
vn -0.707106 -0.000001 -0.707108
vn -1.000000 -0.000002 -0.000002
vn -1.000000 -0.000002 -0.000001
vn 0.000007 0.021133 -0.999777
vn 0.706948 0.021133 -0.706950
vn -0.706946 0.021133 -0.706952
vn -0.999777 0.021133 -0.000002
vn -0.706948 0.021133 0.706950
vn -0.000002 0.021133 0.999777
vn 0.706947 0.021133 0.706951
vn 0.999777 0.021133 0.000002
vn 0.706868 0.025989 -0.706868
vn 0.000000 0.025989 -0.999662
vn -0.706868 0.025989 -0.706868
vn -0.999662 0.025989 0.000000
vn -0.706868 0.025989 0.706868
vn -0.000000 0.025989 0.999662
vn 0.706868 0.025989 0.706868
vn 0.999662 0.025989 -0.000000
vn -0.000000 -0.999981 -0.006160
vn 0.004356 -0.999981 -0.004356
vn -0.000000 -1.000000 -0.000000
vn -0.004356 -0.999981 -0.004356
vn -0.006160 -0.999981 0.000000
vn -0.004356 -0.999981 0.004356
vn 0.000000 -0.999981 0.006160
vn 0.004356 -0.999981 0.004356
vn 0.006160 -0.999981 -0.000000
vn 0.686207 -0.241332 -0.686207
vn 0.000000 -0.241332 -0.970442
vn -0.686206 -0.241332 -0.686207
vn -0.970443 -0.241332 0.000000
vn -0.686206 -0.241332 0.686207
vn -0.000000 -0.241332 0.970443
vn 0.686206 -0.241332 0.686207
vn 0.970443 -0.241332 -0.000000
vn 0.494479 -0.714830 -0.494479
vn -0.000000 -0.714830 -0.699299
vn -0.494479 -0.714830 -0.494479
vn -0.699299 -0.714830 0.000000
vn -0.494479 -0.714830 0.494479
vn -0.000000 -0.714830 0.699298
vn 0.494478 -0.714831 0.494478
vn 0.699298 -0.714830 -0.000000
s 1
g textureEditorIsolateSelectSet pCylinder1
usemtl initialShadingGroup
f 99/171/1 100/152/2 146/153/3 139/176/4
f 100/1/2 101/3/5 145/4/6 146/2/3
f 101/3/5 102/5/7 144/6/8 145/4/6
f 102/5/7 103/7/9 143/8/10 144/6/8
f 103/7/9 104/9/11 142/10/12 143/8/10
f 104/9/11 105/11/13 141/12/14 142/10/12
f 105/11/13 106/13/15 140/14/16 141/12/14
f 106/13/15 99/171/1 139/176/4 140/14/16
s 2
g pCylinder1
f 74/15/17 75/16/18 76/17/19
f 75/16/18 77/18/20 76/17/19
f 77/18/20 78/19/21 76/17/19
f 78/19/21 79/20/22 76/17/19
f 79/20/22 80/21/23 76/17/19
f 80/21/23 81/22/24 76/17/19
f 81/22/24 82/23/25 76/17/19
f 82/23/25 74/15/17 76/17/19
s 1
g textureEditorIsolateSelectSet pCylinder1
f 34/24/26 35/154/27 11/158/28 10/155/29
f 35/25/27 36/27/30 12/28/31 11/26/28
f 36/27/30 37/29/32 13/30/33 12/28/31
f 37/29/32 38/31/34 14/32/35 13/30/33
f 38/31/34 39/33/36 15/34/37 14/32/35
f 39/33/36 40/35/38 16/36/39 15/34/37
f 40/35/38 41/37/40 17/38/41 16/36/39
f 41/37/40 34/24/26 10/155/29 17/38/41
f 26/39/42 27/156/43 49/157/44 42/160/45
f 27/40/43 28/42/46 48/43/47 49/41/44
f 28/42/46 29/44/48 47/45/49 48/43/47
f 29/44/48 30/46/50 46/47/51 47/45/49
f 30/46/50 31/48/52 45/49/53 46/47/51
f 31/48/52 32/50/54 44/51/55 45/49/53
f 32/50/54 33/52/56 43/53/57 44/51/55
f 33/52/56 26/39/42 42/160/45 43/53/57
f 10/155/29 11/158/28 27/156/43 26/39/42
f 11/26/28 12/28/31 28/42/46 27/40/43
f 12/28/31 13/30/33 29/44/48 28/42/46
f 13/30/33 14/32/35 30/46/50 29/44/48
f 14/32/35 15/34/37 31/48/52 30/46/50
f 15/34/37 16/36/39 32/50/54 31/48/52
f 16/36/39 17/38/41 33/52/56 32/50/54
f 17/38/41 10/155/29 26/39/42 33/52/56
f 1/177/58 2/159/59 35/154/27 34/24/26
f 2/54/59 3/55/60 36/27/30 35/25/27
f 3/55/60 4/56/61 37/29/32 36/27/30
f 4/56/61 5/57/62 38/31/34 37/29/32
f 5/57/62 6/58/63 39/33/36 38/31/34
f 6/58/63 7/59/64 40/35/38 39/33/36
f 7/59/64 8/60/65 41/37/40 40/35/38
f 8/60/65 1/177/58 34/24/26 41/37/40
s 4
f 43/53/66 42/160/67 50/162/68 51/61/69
f 44/51/70 43/53/66 51/61/69 52/62/71
f 45/49/72 44/51/70 52/62/71 53/63/73
f 46/47/74 45/49/72 53/63/73 54/64/75
f 47/45/76 46/47/74 54/64/75 55/65/77
f 48/43/78 47/45/76 55/65/77 56/66/79
f 49/41/80 48/43/78 56/66/79 57/67/81
f 42/160/67 49/157/80 57/161/81 50/162/68
f 51/61/69 50/162/68 58/166/82 59/68/83
f 52/62/71 51/61/69 59/68/83 60/69/84
f 53/63/73 52/62/71 60/69/84 61/70/85
f 54/64/75 53/63/73 61/70/85 62/71/86
f 55/65/77 54/64/75 62/71/86 63/72/87
f 56/66/79 55/65/77 63/72/87 64/73/88
f 57/67/81 56/66/79 64/73/88 65/74/89
f 50/162/68 57/161/81 65/163/89 58/166/82
s 5
f 90/75/90 83/76/91 91/167/92 92/77/93
f 89/78/94 90/75/90 92/77/93 93/79/95
f 88/80/96 89/78/94 93/79/95 94/81/97
f 87/82/98 88/80/96 94/81/97 95/83/99
f 86/84/100 87/82/98 95/83/99 96/85/101
f 85/86/102 86/84/100 96/85/101 97/87/103
f 84/88/104 85/86/102 97/87/103 98/89/105
f 83/76/91 84/164/104 98/165/105 91/167/92
g pCylinder1
f 18/91/106 19/92/107 67/94/108 66/96/109
f 19/92/107 20/98/110 68/100/111 67/94/108
f 20/98/110 21/102/112 69/104/113 68/100/111
f 21/102/112 22/144/114 70/145/115 69/104/113
f 22/144/114 23/146/116 71/147/117 70/145/115
f 23/146/116 24/148/118 72/149/119 71/147/117
f 24/148/118 25/150/120 73/151/121 72/149/119
f 25/150/120 18/91/106 66/96/109 73/151/121
s 6
f 66/96/122 67/94/123 75/16/124 74/15/125
f 67/94/123 68/100/126 77/18/127 75/16/124
f 68/100/126 69/104/128 78/19/129 77/18/127
f 69/104/128 70/145/130 79/20/131 78/19/129
f 70/145/130 71/147/132 80/21/133 79/20/131
f 71/147/132 72/149/134 81/22/135 80/21/133
f 72/149/134 73/151/136 82/23/137 81/22/135
f 73/151/136 66/96/122 74/15/125 82/23/137
s 4
g textureEditorIsolateSelectSet pCylinder1
f 58/166/82 65/163/89 84/164/138 83/76/139
f 65/74/89 64/73/88 85/86/140 84/88/138
f 64/73/88 63/72/87 86/84/141 85/86/140
f 63/72/87 62/71/86 87/82/142 86/84/141
f 62/71/86 61/70/85 88/80/143 87/82/142
f 61/70/85 60/69/84 89/78/144 88/80/143
f 60/69/84 59/68/83 90/75/145 89/78/144
f 59/68/83 58/166/82 83/76/139 90/75/145
s 5
f 92/77/93 91/167/92 18/169/106 25/90/120
f 93/79/95 92/77/93 25/90/120 24/93/118
f 94/81/97 93/79/95 24/93/118 23/95/116
f 95/83/99 94/81/97 23/95/116 22/97/114
f 96/85/101 95/83/99 22/97/114 21/99/112
f 97/87/103 96/85/101 21/99/112 20/101/110
f 98/89/105 97/87/103 20/101/110 19/103/107
f 91/167/92 98/165/105 19/168/107 18/169/106
s 1
f 107/173/146 108/170/147 100/152/2 99/171/1
f 108/105/147 109/106/148 101/3/5 100/1/2
f 109/106/148 110/107/149 102/5/7 101/3/5
f 110/107/149 111/108/150 103/7/9 102/5/7
f 111/108/150 112/109/151 104/9/11 103/7/9
f 112/109/151 113/110/152 105/11/13 104/9/11
f 113/110/152 114/111/153 106/13/15 105/11/13
f 114/111/153 107/173/146 99/171/1 106/13/15
g pCylinder1
f 120/112/154 117/113/155 9/114/156
f 123/115/157 120/112/154 9/114/156
f 126/116/158 123/115/157 9/114/156
f 129/117/159 126/116/158 9/114/156
f 132/118/160 129/117/159 9/114/156
f 135/119/161 132/118/160 9/114/156
f 138/120/162 135/119/161 9/114/156
f 117/113/155 138/120/162 9/114/156
g textureEditorIsolateSelectSet pCylinder1
f 115/121/163 118/172/164 108/170/147 107/173/146
f 118/122/164 121/123/165 109/106/148 108/105/147
f 121/123/165 124/124/166 110/107/149 109/106/148
f 124/124/166 127/125/167 111/108/150 110/107/149
f 127/125/167 130/126/168 112/109/151 111/108/150
f 130/126/168 133/127/169 113/110/152 112/109/151
f 133/127/169 136/128/170 114/111/153 113/110/152
f 136/128/170 115/121/163 107/173/146 114/111/153
f 115/121/163 116/174/171 119/175/172 118/172/164
g pCylinder1
f 116/129/171 117/113/155 120/112/154 119/130/172
g textureEditorIsolateSelectSet pCylinder1
f 118/122/164 119/137/172 122/138/173 121/123/165
g pCylinder1
f 119/130/172 120/112/154 123/115/157 122/131/173
g textureEditorIsolateSelectSet pCylinder1
f 121/123/165 122/138/173 125/139/174 124/124/166
g pCylinder1
f 122/131/173 123/115/157 126/116/158 125/132/174
g textureEditorIsolateSelectSet pCylinder1
f 124/124/166 125/139/174 128/140/175 127/125/167
g pCylinder1
f 125/132/174 126/116/158 129/117/159 128/133/175
g textureEditorIsolateSelectSet pCylinder1
f 127/125/167 128/140/175 131/141/176 130/126/168
g pCylinder1
f 128/133/175 129/117/159 132/118/160 131/134/176
g textureEditorIsolateSelectSet pCylinder1
f 130/126/168 131/141/176 134/142/177 133/127/169
g pCylinder1
f 131/134/176 132/118/160 135/119/161 134/135/177
g textureEditorIsolateSelectSet pCylinder1
f 133/127/169 134/142/177 137/143/178 136/128/170
g pCylinder1
f 134/135/177 135/119/161 138/120/162 137/136/178
f 117/113/155 116/129/171 137/136/178 138/120/162
g textureEditorIsolateSelectSet pCylinder1
f 116/174/171 115/121/163 136/128/170 137/143/178
f 140/14/16 139/176/4 1/177/58 8/60/65
f 141/12/14 140/14/16 8/60/65 7/59/64
f 142/10/12 141/12/14 7/59/64 6/58/63
f 143/8/10 142/10/12 6/58/63 5/57/62
f 144/6/8 143/8/10 5/57/62 4/56/61
f 145/4/6 144/6/8 4/56/61 3/55/60
f 146/2/3 145/4/6 3/55/60 2/54/59
f 139/176/4 146/153/3 2/159/59 1/177/58
