# This file uses centimeters as units for non-parametric coordinates.

mtllib Wall.mtl
g default
v -120.000000 0.000000 -586.888251
v 120.000000 0.000000 -586.888251
v -120.000000 240.000000 -586.888251
v 120.000000 240.000000 -586.888251
v -120.000000 240.000000 -606.888251
v 120.000000 240.000000 -606.888251
v -120.000000 0.000000 -606.888251
v 120.000000 0.000000 -606.888251
vt 0.500000 0.000000
vt 1.000000 0.000000
vt 1.000000 0.500000
vt 0.500000 0.500000
vt 1.000000 0.500000
vt 0.500000 0.500000
vt 1.000000 0.000000
vt 0.500000 0.000000
vn 0.000000 0.000000 1.000000
vn 0.000000 0.000000 1.000000
vn 0.000000 0.000000 1.000000
vn 0.000000 0.000000 1.000000
vn 0.000000 1.000000 0.000000
vn 0.000000 1.000000 0.000000
vn 0.000000 1.000000 0.000000
vn 0.000000 1.000000 0.000000
vn 0.000000 0.000000 -1.000000
vn 0.000000 0.000000 -1.000000
vn 0.000000 0.000000 -1.000000
vn 0.000000 0.000000 -1.000000
vn 0.000000 -1.000000 0.000000
vn 0.000000 -1.000000 0.000000
vn 0.000000 -1.000000 0.000000
vn 0.000000 -1.000000 0.000000
vn 1.000000 0.000000 0.000000
vn 1.000000 0.000000 0.000000
vn 1.000000 0.000000 0.000000
vn 1.000000 0.000000 0.000000
vn -1.000000 0.000000 0.000000
vn -1.000000 0.000000 0.000000
vn -1.000000 0.000000 0.000000
vn -1.000000 0.000000 0.000000
s off
g pCube5
usemtl initialShadingGroup
f 1/1/1 2/2/2 4/3/3 3/4/4
f 3/4/5 4/3/6 6/5/7 5/6/8
f 5/6/9 6/5/10 8/7/11 7/8/12
f 7/8/13 8/7/14 2/2/15 1/1/16
f 2/2/17 8/7/18 6/5/19 4/3/20
f 7/8/21 1/1/22 3/4/23 5/6/24
g default
v 120.000000 -0.000000 -586.888251
v -120.000000 0.000000 -586.888251
v 120.000000 -0.000000 -346.888251
v -120.000000 -0.000000 -346.888251
v 120.000000 -20.000000 -346.888251
v -120.000000 -20.000000 -346.888251
v 120.000000 -20.000000 -586.888251
v -120.000000 -20.000000 -586.888251
vt 0.500000 0.500000
vt 0.000000 0.500000
vt 0.000000 0.000000
vt 0.500000 0.000000
vt 0.000000 0.000000
vt 0.500000 0.000000
vt 0.000000 0.500000
vt 0.500000 0.500000
vn 0.000000 1.000000 0.000000
vn 0.000000 1.000000 0.000000
vn 0.000000 1.000000 0.000000
vn 0.000000 1.000000 0.000000
vn -0.000000 -0.000000 1.000000
vn -0.000000 -0.000000 1.000000
vn -0.000000 -0.000000 1.000000
vn -0.000000 -0.000000 1.000000
vn -0.000000 -1.000000 -0.000000
vn -0.000000 -1.000000 -0.000000
vn -0.000000 -1.000000 -0.000000
vn -0.000000 -1.000000 -0.000000
vn 0.000000 0.000000 -1.000000
vn 0.000000 0.000000 -1.000000
vn 0.000000 0.000000 -1.000000
vn 0.000000 0.000000 -1.000000
vn -1.000000 0.000000 0.000000
vn -1.000000 0.000000 0.000000
vn -1.000000 0.000000 0.000000
vn -1.000000 0.000000 0.000000
vn 1.000000 -0.000000 -0.000000
vn 1.000000 -0.000000 -0.000000
vn 1.000000 -0.000000 -0.000000
vn 1.000000 -0.000000 -0.000000
s off
g pCube6
usemtl initialShadingGroup
f 9/9/25 10/10/26 12/11/27 11/12/28
f 11/12/29 12/11/30 14/13/31 13/14/32
f 13/14/33 14/13/34 16/15/35 15/16/36
f 15/16/37 16/15/38 10/10/39 9/9/40
f 10/10/41 16/15/42 14/13/43 12/11/44
f 15/16/45 9/9/46 11/12/47 13/14/48
g default
v 119.999993 0.000000 -586.888251
v 119.999993 0.000000 -346.888251
v 119.999993 240.000000 -586.888251
v 119.999993 240.000000 -346.888251
v 139.999993 240.000000 -586.888251
v 139.999993 240.000000 -346.888251
v 139.999993 0.000000 -586.888251
v 139.999993 0.000000 -346.888251
vt 0.500000 0.000000
vt 1.000000 0.000000
vt 1.000000 0.500000
vt 0.500000 0.500000
vt 1.000000 0.500000
vt 0.500000 0.500000
vt 1.000000 0.000000
vt 0.500000 0.000000
vn -1.000000 0.000000 0.000000
vn -1.000000 0.000000 0.000000
vn -1.000000 0.000000 0.000000
vn -1.000000 0.000000 0.000000
vn 0.000000 1.000000 0.000000
vn 0.000000 1.000000 0.000000
vn 0.000000 1.000000 0.000000
vn 0.000000 1.000000 0.000000
vn 1.000000 0.000000 -0.000000
vn 1.000000 0.000000 -0.000000
vn 1.000000 0.000000 -0.000000
vn 1.000000 0.000000 -0.000000
vn 0.000000 -1.000000 0.000000
vn 0.000000 -1.000000 0.000000
vn 0.000000 -1.000000 0.000000
vn 0.000000 -1.000000 0.000000
vn 0.000000 0.000000 1.000000
vn 0.000000 0.000000 1.000000
vn 0.000000 0.000000 1.000000
vn 0.000000 0.000000 1.000000
vn -0.000000 0.000000 -1.000000
vn -0.000000 0.000000 -1.000000
vn -0.000000 0.000000 -1.000000
vn -0.000000 0.000000 -1.000000
s off
g pCube29
usemtl initialShadingGroup
f 17/17/49 18/18/50 20/19/51 19/20/52
f 19/20/53 20/19/54 22/21/55 21/22/56
f 21/22/57 22/21/58 24/23/59 23/24/60
f 23/24/61 24/23/62 18/18/63 17/17/64
f 18/18/65 24/23/66 22/21/67 20/19/68
f 23/24/69 17/17/70 19/20/71 21/22/72
g default
v 116.533939 0.000001 -586.888245
v 116.533939 0.000001 -346.888245
v 120.000000 21.853470 -586.888245
v 120.000000 21.853470 -346.888245
v 120.000000 0.000001 -586.888245
v 120.000000 0.000001 -346.888245
v 117.920237 21.853470 -586.888245
v 116.533939 19.231316 -586.888245
v 116.939977 21.085459 -586.888245
v 117.920237 21.853470 -346.888245
v 116.939977 21.085459 -346.888245
v 116.533939 19.231316 -346.888245
vt 0.531143 0.025313
vt 0.969339 0.024151
vt 0.985407 0.024109
vt 0.515076 0.025355
vt 0.512879 0.023170
vt 0.987591 0.021912
vt 1.000041 0.026640
vt 0.512870 0.019884
vt 0.969325 0.018674
vt 0.531128 0.019835
vt 0.513525 0.024718
vt 0.986954 0.023463
vt 1.000017 0.018178
vt 1.000023 0.020115
vt 0.500023 0.021702
vt 0.500017 0.019766
vt 1.000029 0.022051
vt 0.500029 0.023638
vt 0.969276 0.000416
vt 0.500041 0.026640
vt 0.999959 0.000000
vt 0.499959 0.000000
vt 0.987583 0.018626
vt 0.531080 0.001577
vn -1.000000 0.000000 0.000000
vn -1.000000 0.000000 0.000000
vn -0.999815 0.019253 0.000000
vn -0.999815 0.019253 0.000000
vn -0.243432 0.969918 0.000000
vn -0.243432 0.969918 0.000000
vn 0.000000 1.000000 0.000000
vn 0.000000 1.000000 0.000000
vn 1.000000 0.000000 -0.000000
vn 1.000000 0.000000 -0.000000
vn 1.000000 0.000000 -0.000000
vn 1.000000 0.000000 -0.000000
vn 0.000000 -1.000000 0.000000
vn 0.000000 -1.000000 0.000000
vn 0.000000 -1.000000 0.000000
vn 0.000000 -1.000000 0.000000
vn -0.884053 0.467387 0.000000
vn -0.884053 0.467387 0.000000
vn -0.000000 0.000000 -1.000000
vn -0.000000 0.000000 -1.000000
vn -0.000000 0.000000 -1.000000
vn 0.000000 0.000000 1.000000
vn 0.000000 0.000000 1.000000
vn 0.000000 0.000000 1.000000
vn -0.000000 0.000000 -1.000000
vn -0.000000 0.000000 -1.000000
vn -0.000000 0.000000 -1.000000
vn 0.000000 0.000000 1.000000
vn 0.000000 0.000000 1.000000
vn 0.000000 0.000000 1.000000
s 1
g skirtingBoard2
usemtl initialShadingGroup
f 25/46/73 26/45/74 36/37/75 32/40/76
f 31/42/77 34/41/78 28/31/79 27/44/80
s off
f 27/48/81 28/43/82 30/33/83 29/34/84
f 29/34/85 30/33/86 26/26/87 25/25/88
s 1
f 31/42/77 33/39/89 35/38/90 34/41/78
f 33/39/89 32/40/76 36/37/75 35/38/90
s 3
f 31/29/91 29/34/92 33/35/93
s 4
f 26/26/94 30/33/95 36/27/96
s 3
f 31/29/91 27/32/97 29/34/92
f 32/28/98 29/34/92 25/25/99
f 33/35/93 29/34/92 32/28/98
s 4
f 34/30/100 30/33/95 28/47/101
f 35/36/102 30/33/95 34/30/100
f 36/27/96 30/33/95 35/36/102
g default
v 120.000000 259.999993 -586.888251
v -120.000000 259.999993 -586.888251
v 120.000000 259.999993 -346.888251
v -120.000000 259.999993 -346.888251
v 120.000000 239.999993 -346.888251
v -120.000000 239.999993 -346.888251
v 120.000000 239.999993 -586.888251
v -120.000000 239.999993 -586.888251
vt 0.500000 1.000000
vt 0.000000 1.000000
vt 0.000000 0.500000
vt 0.500000 0.500000
vt 0.000000 0.500000
vt 0.500000 0.500000
vt 0.000000 1.000000
vt 0.500000 1.000000
vn 0.000000 1.000000 0.000000
vn 0.000000 1.000000 0.000000
vn 0.000000 1.000000 0.000000
vn 0.000000 1.000000 0.000000
vn -0.000000 -0.000000 1.000000
vn -0.000000 -0.000000 1.000000
vn -0.000000 -0.000000 1.000000
vn -0.000000 -0.000000 1.000000
vn -0.000000 -1.000000 -0.000000
vn -0.000000 -1.000000 -0.000000
vn -0.000000 -1.000000 -0.000000
vn -0.000000 -1.000000 -0.000000
vn 0.000000 0.000000 -1.000000
vn 0.000000 0.000000 -1.000000
vn 0.000000 0.000000 -1.000000
vn 0.000000 0.000000 -1.000000
vn -1.000000 0.000000 0.000000
vn -1.000000 0.000000 0.000000
vn -1.000000 0.000000 0.000000
vn -1.000000 0.000000 0.000000
vn 1.000000 -0.000000 -0.000000
vn 1.000000 -0.000000 -0.000000
vn 1.000000 -0.000000 -0.000000
vn 1.000000 -0.000000 -0.000000
s off
g pCube28
usemtl initialShadingGroup
f 37/49/103 38/50/104 40/51/105 39/52/106
f 39/52/107 40/51/108 42/53/109 41/54/110
f 41/54/111 42/53/112 44/55/113 43/56/114
f 43/56/115 44/55/116 38/50/117 37/49/118
f 38/50/119 44/55/120 42/53/121 40/51/122
f 43/56/123 37/49/124 39/52/125 41/54/126
g default
v -120.000000 0.000001 -583.422184
v 120.000000 0.000001 -583.422184
v -120.000000 21.853470 -586.888245
v 120.000000 21.853470 -586.888245
v -120.000000 0.000001 -586.888245
v 120.000000 0.000001 -586.888245
v -120.000000 21.853470 -584.808481
v -120.000000 19.231316 -583.422184
v -120.000000 21.085459 -583.828222
v 120.000000 21.853470 -584.808481
v 120.000000 21.085459 -583.828222
v 120.000000 19.231316 -583.422184
vt 0.531143 0.025313
vt 0.969339 0.024151
vt 0.985407 0.024109
vt 0.515076 0.025355
vt 0.512879 0.023170
vt 0.987591 0.021912
vt 1.000041 0.026640
vt 0.512870 0.019884
vt 0.969325 0.018674
vt 0.531128 0.019835
vt 0.513525 0.024718
vt 0.986954 0.023463
vt 1.000017 0.018178
vt 1.000023 0.020115
vt 0.500023 0.021702
vt 0.500017 0.019766
vt 1.000029 0.022051
vt 0.500029 0.023638
vt 0.969276 0.000416
vt 0.500041 0.026640
vt 0.999959 0.000000
vt 0.499959 0.000000
vt 0.987583 0.018626
vt 0.531080 0.001577
vn 0.000000 0.000000 1.000000
vn 0.000000 0.000000 1.000000
vn 0.000000 0.019253 0.999815
vn 0.000000 0.019253 0.999815
vn 0.000000 0.969918 0.243432
vn 0.000000 0.969918 0.243432
vn 0.000000 1.000000 0.000000
vn 0.000000 1.000000 0.000000
vn 0.000000 0.000000 -1.000000
vn 0.000000 0.000000 -1.000000
vn 0.000000 0.000000 -1.000000
vn 0.000000 0.000000 -1.000000
vn 0.000000 -1.000000 0.000000
vn 0.000000 -1.000000 0.000000
vn 0.000000 -1.000000 0.000000
vn 0.000000 -1.000000 0.000000
vn 0.000000 0.467387 0.884053
vn 0.000000 0.467387 0.884053
vn -1.000000 0.000000 0.000000
vn -1.000000 0.000000 0.000000
vn -1.000000 0.000000 0.000000
vn 1.000000 0.000000 0.000000
vn 1.000000 0.000000 0.000000
vn 1.000000 0.000000 0.000000
vn -1.000000 0.000000 0.000000
vn -1.000000 0.000000 0.000000
vn -1.000000 0.000000 0.000000
vn 1.000000 0.000000 0.000000
vn 1.000000 0.000000 0.000000
vn 1.000000 0.000000 0.000000
s 1
g skirtingBoard1
usemtl initialShadingGroup
f 45/78/127 46/77/128 56/69/129 52/72/130
f 51/74/131 54/73/132 48/63/133 47/76/134
s off
f 47/80/135 48/75/136 50/65/137 49/66/138
f 49/66/139 50/65/140 46/58/141 45/57/142
s 1
f 51/74/131 53/71/143 55/70/144 54/73/132
f 53/71/143 52/72/130 56/69/129 55/70/144
s 3
f 51/61/145 49/66/146 53/67/147
s 4
f 46/58/148 50/65/149 56/59/150
s 3
f 51/61/145 47/64/151 49/66/146
f 52/60/152 49/66/146 45/57/153
f 53/67/147 49/66/146 52/60/152
s 4
f 54/62/154 50/65/149 48/79/155
f 55/68/156 50/65/149 54/62/154
f 56/59/150 50/65/149 55/68/156
